<svg width="56" height="56" viewBox="0 0 56 56" fill="none" xmlns="http://www.w3.org/2000/svg">
<g clip-path="url(#clip0)">
<path d="M40.6045 51.4025C39.6927 50.4906 39.0617 49.4032 38.7086 48.248C35.5111 49.9457 31.867 50.9094 28.0017 50.9094C24.1362 50.9094 20.4921 49.9457 17.2947 48.248C16.9414 49.403 16.311 50.4906 15.399 51.4027C15.0352 51.7665 14.6411 52.0886 14.2227 52.3677C18.2934 54.6785 22.9956 56.0003 28.0017 56.0003C33.0078 56.0003 37.7103 54.6785 41.781 52.3677C41.3623 52.0886 40.9681 51.7664 40.6045 51.4025Z" fill="#418CEF"/>
<path d="M7.74944 17.2983C6.57212 16.9375 5.49336 16.2924 4.5978 15.3968C4.23106 15.0301 3.91016 14.635 3.63387 14.2188C1.32212 18.2899 0 22.9933 0 27.9998C0 33.0063 1.32212 37.7097 3.63377 41.7807C3.91005 41.3644 4.23106 40.9693 4.59769 40.6026C5.49314 39.7073 6.57191 39.0621 7.74933 38.7012C6.05347 35.5051 5.09086 31.8629 5.09086 27.9998C5.09086 24.1367 6.05347 20.4945 7.74944 17.2983Z" fill="#3983E4"/>
<path d="M27.9979 0C22.9918 0 18.2896 1.3218 14.2188 3.63267C14.6372 3.91169 15.0314 4.23391 15.3951 4.59758C16.307 5.50955 16.9393 6.59663 17.2926 7.75141C20.4895 6.05423 24.133 5.09086 27.9979 5.09086C31.864 5.09086 35.5086 6.05489 38.7065 7.75305C39.0593 6.59794 39.6887 5.50987 40.6009 4.59769C40.9646 4.23391 41.3587 3.9118 41.7772 3.63278C37.7063 1.3218 33.004 0 27.9979 0Z" fill="#418CEF"/>
<path d="M52.3667 14.2207C52.0876 14.6392 51.7656 15.0334 51.4018 15.397C50.5063 16.2924 49.4275 16.9376 48.2501 17.2985C49.9459 20.4946 50.9085 24.1368 50.9085 28C50.9085 31.8632 49.946 35.5053 48.25 38.7015C49.4273 39.0624 50.5061 39.7076 51.4016 40.603C51.7654 40.9667 52.0875 41.3608 52.3665 41.7793C54.6775 37.7082 55.9993 33.006 55.9993 27.9999C55.9993 22.9938 54.6775 18.2915 52.3667 14.2207Z" fill="#3983E4"/>
<path d="M47.8022 44.2026C47.3053 43.7056 46.6539 43.457 46.0024 43.457C45.351 43.457 44.6995 43.7054 44.2025 44.2026C43.2086 45.1968 43.2086 46.8084 44.2025 47.8024C44.6995 48.2994 45.351 48.548 46.0024 48.548C46.6539 48.548 47.3054 48.2994 47.8022 47.8024C48.7963 46.8083 48.7963 45.1966 47.8022 44.2026Z" fill="#D6E2EF"/>
<path d="M11.7985 8.19678C11.3015 7.69978 10.6499 7.45117 9.99847 7.45117C9.34704 7.45117 8.69549 7.69978 8.19871 8.19678C7.2046 9.19089 7.2046 10.8025 8.19871 11.7965C8.6956 12.2935 9.34704 12.5421 9.99847 12.5421C10.6499 12.5421 11.3015 12.2937 11.7985 11.7965C12.7926 10.8025 12.7926 9.19089 11.7985 8.19678Z" fill="#D6E2EF"/>
<path d="M47.8022 8.19678C47.3052 7.69978 46.6537 7.45117 46.0024 7.45117C45.3511 7.45117 44.6995 7.69978 44.2025 8.19678C43.2086 9.19089 43.2086 10.8025 44.2025 11.7965C44.6995 12.2935 45.351 12.5421 46.0024 12.5421C46.6539 12.5421 47.3054 12.2937 47.8022 11.7965C48.7963 10.8025 48.7963 9.19089 47.8022 8.19678Z" fill="#D6E2EF"/>
<path d="M11.7985 44.2026C11.3015 43.7056 10.6499 43.457 9.99847 43.457C9.34704 43.457 8.69549 43.7054 8.19871 44.2026C7.2046 45.1968 7.2046 46.8084 8.19871 47.8024C8.69571 48.2994 9.34725 48.548 9.99847 48.548C10.6497 48.548 11.3015 48.2994 11.7985 47.8024C12.7926 46.8083 12.7926 45.1966 11.7985 44.2026Z" fill="#D6E2EF"/>
<path d="M28.0018 10.1816C18.1611 10.1816 10.1836 18.1591 10.1836 27.9998C10.1836 37.8405 18.1611 45.818 28.0018 45.818C37.8425 45.818 45.8199 37.8405 45.8199 27.9998C45.8199 18.1591 37.8425 10.1816 28.0018 10.1816ZM22.9109 30.5453H15.5306C15.3629 29.7226 15.2746 28.8714 15.2746 27.9998C15.2746 27.1282 15.3629 26.277 15.5306 25.4543H22.9109V30.5453ZM38.1836 35.6273C38.1814 35.6301 38.1789 35.6331 38.1766 35.6362H33.0926V30.5453H38.1835V35.6273H38.1836ZM29.6987 25.4543V20.3635H38.1766C39.2907 21.8443 40.0898 23.5743 40.4729 25.4543H29.6987Z" fill="#CCD7E4"/>
<path fill-rule="evenodd" clip-rule="evenodd" d="M27.8906 45.8281C18.1048 45.8281 10.1719 37.8462 10.1719 28C10.1719 18.1538 18.1048 10.1719 27.8906 10.1719V45.8281ZM15.4432 25.4844H22.8807V30.5156H15.4432L15.4421 30.5079C15.1961 28.7659 15.0577 27.7858 15.4432 25.4844Z" fill="#DFE8F4"/>
</g>
<defs>
<clipPath id="clip0">
<rect width="56" height="56" fill="white"/>
</clipPath>
</defs>
</svg>
