<svg width="56" height="56" viewBox="0 0 56 56" fill="none" xmlns="http://www.w3.org/2000/svg">
<path d="M42.6843 40.2321L42.381 40.4343L41.7149 40.8784C37.8556 45.8653 31.8146 49.0825 25.0353 49.0825C13.4105 49.0825 3.95292 39.625 3.95292 28.0001C3.95292 16.3752 13.4105 6.91777 25.0353 6.91777C32.2451 6.91777 38.62 10.5563 42.4232 16.0928C42.721 15.7109 43.0488 15.3387 43.4084 14.9792C44.1143 14.2733 44.8149 13.7384 45.3434 13.3771C40.7925 7.07483 33.3854 2.96484 25.0353 2.96484C11.2307 2.96484 0 14.1956 0 28.0001C0 41.8047 11.2307 53.0354 25.0353 53.0354C33.3851 53.0354 40.7921 48.9258 45.3428 42.6238C44.6331 42.1387 43.6153 41.3404 42.6843 40.2321Z" fill="#CCD7E4"/>
<path d="M25.0357 10.8691C15.5754 10.8691 7.90625 18.5383 7.90625 27.9986C7.90625 37.4589 15.5754 45.128 25.0357 45.128C29.3178 45.128 33.2327 43.5566 36.2357 40.9592V37.1436V34.9315C34.9543 36.994 33.1197 38.6784 30.9404 39.7754L28.9886 33.269H25.0357L26.3533 26.6808H31.6239V20.0926L28.9886 18.775V15.4281C34.1186 17.0449 37.9041 21.7213 38.194 27.3074L40.3605 24.7798V21.8113C40.3605 21.3816 40.3945 20.9559 40.4572 20.5344C37.6833 14.814 31.8202 10.8691 25.0357 10.8691ZM15.8122 35.9044L13.5635 34.4735C12.4793 32.56 11.8592 30.3506 11.8592 27.9986C11.8592 24.4106 13.3014 21.1537 15.6357 18.7751H22.4004V21.4104L15.8122 24.0457V27.9986H18.4475L15.8122 35.9044ZM22.7208 40.9712C21.7477 40.7982 20.8111 40.5179 19.9239 40.1429C19.7972 39.8822 19.7239 39.5905 19.7239 39.2809C19.7239 38.1894 20.6088 37.3044 21.7004 37.3044C22.792 37.3044 23.6769 38.1894 23.6769 39.2809C23.6769 39.9985 23.293 40.625 22.7208 40.9712Z" fill="#CCD7E4"/>
<path d="M7.98438 27.9986C7.98438 18.5383 15.6535 10.8691 25.1138 10.8691V45.128C15.6535 45.128 7.98438 37.4589 7.98438 27.9986Z" fill="#DFE8F4"/>
<path d="M15.8122 35.9044L13.5635 34.4735C12.4793 32.56 11.8592 30.3506 11.8592 27.9986C11.8592 24.4106 13.3014 21.1537 15.6357 18.7751H22.4004V21.4104L15.8122 24.0457V27.9986H18.4475L15.8122 35.9044ZM22.7208 40.9712C21.7477 40.7982 20.8111 40.5179 19.9239 40.1429C19.7972 39.8822 19.7239 39.5905 19.7239 39.2809C19.7239 38.1894 20.6088 37.3044 21.7004 37.3044C22.792 37.3044 23.6769 38.1894 23.6769 39.2809C23.6769 39.9985 23.293 40.625 22.7208 40.9712Z" fill="white"/>
<path d="M51.8745 26.2448V21.8142H51.8743C51.8743 18.3769 48.0934 16.3145 48.0934 16.3145C48.0934 16.3145 44.3124 18.3769 44.3124 21.8142V26.2448L40.1875 31.057V37.1462L44.3173 34.393C44.4629 37.7075 48.0934 39.688 48.0934 39.688C48.0934 39.688 51.7238 37.7075 51.8693 34.393L55.9992 37.1462V31.057L51.8745 26.2448Z" fill="#418CEF"/>
<path d="M44.3124 21.8142C44.3124 18.3769 48.0934 16.3145 48.0934 16.3145V39.688C48.0934 39.688 44.4629 37.7076 44.3173 34.393L40.1875 37.1462V31.057L44.3124 26.2448V21.8142Z" fill="#3983E4"/>
</svg>
