<svg width="56" height="56" viewBox="0 0 56 56" fill="none" xmlns="http://www.w3.org/2000/svg">
<path d="M47.884 28.8101H46.2608C44.4708 28.8101 43.0145 27.3537 43.0145 25.5637C43.0145 23.7737 44.4708 22.3174 46.2608 22.3174H55.1883V17.4478H46.2608C41.7856 17.4478 38.1449 21.0885 38.1449 25.5637C38.1449 30.0389 41.7856 33.6797 46.2608 33.6797H47.884C49.6741 33.6797 51.1304 35.136 51.1304 36.926C51.1304 38.7161 49.6741 40.1724 47.884 40.1724H38.9565V34.3718L29.2924 29.5651C33.1917 26.6004 35.7102 21.9128 35.7102 16.6362C35.7102 7.6715 28.443 0.404297 19.4783 0.404297C10.5136 0.404297 3.24636 7.6715 3.24636 16.6362C3.24636 21.9127 5.76472 26.6003 9.66416 29.5649L0 34.3718V41.6233L8.11595 37.5865V55.5927H16.2319V50.7231H22.7246V55.5927H30.8406V45.042H47.884C52.3591 45.042 56 41.4012 56 36.926C56 32.451 52.3592 28.8101 47.884 28.8101ZM25.971 45.042H12.9855V40.1724H25.9711L25.971 45.042ZM10.1618 23.1289C8.87425 21.2869 8.11595 19.049 8.11595 16.6362C8.11595 14.2233 8.87436 11.9855 10.1618 10.1435H28.7946C30.0823 11.9855 30.8407 14.2234 30.8407 16.6362C30.8407 19.049 30.0824 21.2869 28.7948 23.1289H10.1618ZM30.8406 40.1724V37.5863L36.0398 40.1724H30.8406Z" fill="#D6E2EF"/>
<path d="M47.884 28.8101H46.2608C44.4708 28.8101 43.0145 27.3537 43.0145 25.5637C43.0145 23.7737 44.4708 22.3174 46.2608 22.3174H55.1883V17.4478H46.2608C41.7856 17.4478 38.1449 21.0885 38.1449 25.5637C38.1449 30.0389 41.7856 33.6797 46.2608 33.6797H47.884C49.6741 33.6797 51.1304 35.136 51.1304 36.926C51.1304 38.7161 49.6741 40.1724 47.884 40.1724H38.9565V34.3718L29.2924 29.5651C33.1917 26.6004 35.7102 21.9128 35.7102 16.6362C35.7102 7.6715 28.443 0.404297 19.4783 0.404297C10.5136 0.404297 3.24636 7.6715 3.24636 16.6362C3.24636 21.9127 5.76472 26.6003 9.66416 29.5649L0 34.3718V41.6233L8.11595 37.5865V55.5927H16.2319V50.7231H22.7246V55.5927H30.8406V45.042H47.884C52.3591 45.042 56 41.4012 56 36.926C56 32.451 52.3592 28.8101 47.884 28.8101ZM25.971 45.042H12.9855V40.1724H25.9711L25.971 45.042ZM10.1618 23.1289C8.87425 21.2869 8.11595 19.049 8.11595 16.6362C8.11595 14.2233 8.87436 11.9855 10.1618 10.1435H28.7946C30.0823 11.9855 30.8407 14.2234 30.8407 16.6362C30.8407 19.049 30.0824 21.2869 28.7948 23.1289H10.1618ZM30.8406 40.1724V37.5863L36.0398 40.1724H30.8406Z" fill="url(#paint0_linear)"/>
<path d="M46.2601 28.8096H47.8833C52.3585 28.8096 55.9993 32.4505 55.9993 36.9255C55.9993 41.4007 52.3584 45.0415 47.8833 45.0415H30.8398V40.1719H47.8833C49.6733 40.1719 51.1297 38.7156 51.1297 36.9255C51.1297 35.1355 49.6733 33.6792 47.8833 33.6792H46.2601C41.7849 33.6792 38.1441 30.0384 38.1441 25.5632C38.1441 21.088 41.7849 17.4473 46.2601 17.4473H55.1876V22.3169H46.2601C44.47 22.3169 43.0137 23.7732 43.0137 25.5632C43.0137 27.3533 44.47 28.8096 46.2601 28.8096Z" fill="#418CEF"/>
<defs>
<linearGradient id="paint0_linear" x1="11.5938" y1="55.5609" x2="19.8516" y2="55.5609" gradientUnits="userSpaceOnUse">
<stop offset="0.995153" stop-color="#D6E2EF"/>
<stop offset="1" stop-color="#CCD7E4"/>
</linearGradient>
</defs>
</svg>
