<svg width="56" height="56" viewBox="0 0 56 56" fill="none" xmlns="http://www.w3.org/2000/svg">
<path d="M14.6562 49.7656H7.4375V56H14.6562V49.7656Z" fill="#D6E2EF"/>
<path d="M39.1563 51.2969H33.3594V56H39.1563V51.2969Z" fill="#D6E2EF"/>
<path d="M27.6719 49.7656H20.4531V56H27.6719V49.7656Z" fill="#CDD8E5"/>
<path d="M52.1719 51.2969H46.375V56H52.1719V51.2969Z" fill="#CDD8E5"/>
<path d="M33.3594 51.2969V43.0208C33.3594 33.8791 26.2835 26.4688 17.5547 26.4688C8.82596 26.4688 1.75 33.8791 1.75 43.0207V51.2968H33.3594V51.2969Z" fill="#D6E2EF"/>
<path d="M55.0156 51.2969V44.5521C55.0156 37.1017 49.5311 31.0625 42.7656 31.0625C36 31.0625 30.5156 37.1017 30.5156 44.552V51.2968H55.0156V51.2969Z" fill="#D6E2EF"/>
<path d="M33.3594 51.2969V43.0208C33.3594 33.8791 26.3079 26.4688 17.6094 26.4688C17.6094 37.5587 17.6094 51.2969 17.6094 51.2969H33.3594Z" fill="#CDD8E5"/>
<path d="M55.0156 51.2969V44.5521C55.0156 37.1017 49.8739 31.0625 43.5312 31.0625C43.5312 40.1005 43.5312 51.2969 43.5312 51.2969H55.0156Z" fill="#CDD8E5"/>
<path d="M17.5547 32.7031C26.2835 32.7031 33.3594 25.3822 33.3594 16.3516C33.3594 7.32084 26.2835 0 17.5547 0C8.82596 0 1.75 7.32084 1.75 16.3516C1.75 25.3822 8.82596 32.7031 17.5547 32.7031Z" fill="#D6E2EF"/>
<path d="M42.7656 35.7656C49.5311 35.7656 55.0156 29.8404 55.0156 22.5313C55.0156 15.2221 49.5311 9.29688 42.7656 9.29688C36 9.29688 30.5156 15.2221 30.5156 22.5313C30.5156 29.8404 36 35.7656 42.7656 35.7656Z" fill="#D6E2EF"/>
<path d="M17.6094 0C26.3078 0 33.3594 7.32079 33.3594 16.3516C33.3594 25.3823 26.3078 32.7031 17.6094 32.7031" fill="#CDD8E5"/>
<path d="M43.5312 9.29688C49.8738 9.29688 55.0156 15.2221 55.0156 22.5313C55.0156 29.8404 49.8738 35.7656 43.5312 35.7656" fill="#CDD8E5"/>
<path d="M27.6719 40.4688H7.4375V46.7031H27.6719V40.4688Z" fill="white"/>
<path d="M52.1719 43.5312H33.3594V48.2344H52.1719V43.5312Z" fill="white"/>
<path d="M27.6719 40.4688H17.6094V46.7031H27.6719V40.4688Z" fill="white"/>
<path d="M52.1719 43.5312H43.5312V48.2344H52.1719V43.5312Z" fill="white"/>
<path d="M25.85 9.29688H9.25915C8.11265 11.2828 7.4375 13.6954 7.4375 16.2969C7.4375 18.8983 8.11265 21.3111 9.25915 23.2969H25.85C26.9966 21.311 27.6719 18.8983 27.6719 16.2969C27.6719 13.6954 26.9966 11.2828 25.85 9.29688Z" fill="white"/>
<path d="M50.4781 17.0625H35.0531C33.9871 18.6141 33.3594 20.4988 33.3594 22.5312C33.3594 24.5635 33.9871 26.4486 35.0531 28H50.4781C51.544 26.4484 52.1719 24.5635 52.1719 22.5312C52.1719 20.4988 51.544 18.6141 50.4781 17.0625Z" fill="white"/>
<path d="M50.616 17.0625H43.5312V28H50.616C51.5952 26.4484 52.1719 24.5637 52.1719 22.5312C52.1719 20.499 51.5952 18.6139 50.616 17.0625Z" fill="white"/>
<path d="M42.7346 5.47914L37.6837 4.50286L35.1935 0L32.7037 4.50286L27.6523 5.47914L31.1647 9.2388L30.5322 14.3447L35.1935 12.1655L39.8549 14.3447L39.2225 9.2388L42.7346 5.47914Z" fill="#418CEF"/>
<path d="M36.6191 24.3879L33.1462 23.7167L31.4345 20.6211L29.7227 23.7167L26.25 24.3879L28.6648 26.9728L28.2297 30.4831L31.4345 28.9849L34.639 30.4831L34.2043 26.9728L36.6191 24.3879Z" fill="#418CEF"/>
<path d="M48.691 19.2206L45.8497 18.6715L44.4491 16.1387L43.0487 18.6715L40.207 19.2206L42.183 21.3356L41.8271 24.2076L44.4491 22.9817L47.0709 24.2076L46.7154 21.3356L48.691 19.2206Z" fill="#418CEF"/>
</svg>
