<svg width="56" height="56" viewBox="0 0 56 56" fill="none" xmlns="http://www.w3.org/2000/svg">
<path d="M46.1807 28C48.2397 24.333 49.5053 20.7237 49.8724 17.515C48.8838 18.0184 47.7672 18.3041 46.5843 18.3041C45.9978 18.3041 45.4283 18.2325 44.8818 18.1008C44.7577 18.7427 44.5888 19.4147 44.3749 20.1104C44.0528 21.1572 43.6357 22.2313 43.1332 23.3187C41.7157 21.4105 40.0949 19.5267 38.2843 17.716C36.4734 15.9052 34.5891 14.2851 32.6807 12.8675C35.0577 11.7737 37.3486 11.1007 39.315 10.9169C39.3447 9.03435 40.0928 7.32395 41.2972 6.04714C40.9944 6.02722 40.6877 6.01562 40.3745 6.01562C36.7301 6.0158 32.4065 7.34559 28.0004 9.81935C23.594 7.34525 19.27 6.01545 15.6255 6.0158C12.758 6.01597 10.3095 6.83909 8.57404 8.57457C4.63274 12.5158 5.39809 20.1259 9.81919 28.0002C7.13292 32.7848 5.79691 37.4711 6.0463 41.297C7.32228 40.0931 9.03195 39.3452 10.9135 39.3148C11.0112 38.2706 11.2475 37.1174 11.6251 35.8897C11.9472 34.8429 12.3641 33.7689 12.8668 32.6815C14.2844 34.5896 15.9051 36.4733 17.7156 38.284C19.5265 40.0948 21.4108 41.7149 23.3194 43.1325C21.4931 43.9729 19.7169 44.5663 18.1001 44.8791C18.232 45.4263 18.3039 45.9965 18.3039 46.5838C18.3039 47.7672 18.0178 48.8844 17.5143 49.8728C20.7229 49.5061 24.3328 48.2395 27.9999 46.1806C32.4062 48.6548 36.7299 49.9844 40.3743 49.9844C43.2421 49.9844 45.6904 49.161 47.426 47.4256C51.3673 43.4846 50.6018 35.8742 46.1807 28ZM11.6251 20.1104C10.4861 16.4087 10.6271 13.3777 12.0021 12.0026C12.7578 11.2471 13.9771 10.8638 15.626 10.8638H15.6267H15.6271C17.8049 10.8638 20.5026 11.5708 23.32 12.8671C21.4112 14.285 19.5267 15.905 17.7158 17.716C15.9052 19.5266 14.2844 21.4107 12.8668 23.3187C12.3643 22.2314 11.9472 21.1571 11.6251 20.1104ZM21.1436 34.8561C18.9883 32.7009 17.0787 30.3674 15.5067 28.0002C17.0788 25.6329 18.9885 23.2993 21.144 21.1441C23.303 18.9849 25.6272 17.0769 28.0003 15.5017C30.3729 17.0768 32.6969 18.9848 34.8563 21.144C37.0116 23.2992 38.9214 25.6327 40.4932 28.0001C38.9213 30.3674 37.0116 32.701 34.8563 34.8562C32.6969 37.0153 30.3727 38.9233 27.9998 40.4985C25.627 38.9234 23.3031 37.0153 21.1436 34.8561ZM43.9979 43.9975C43.2421 44.7533 42.023 45.1365 40.3743 45.1365C38.1961 45.1365 35.4976 44.4293 32.6803 43.133C34.5889 41.7152 36.4735 40.0951 38.2844 38.2842C40.0949 36.4737 41.7156 34.5897 43.1332 32.6816C43.6356 33.7688 44.0527 34.8431 44.3749 35.8898C45.514 39.5915 45.373 42.6226 43.9979 43.9975Z" fill="#CCD7E4"/>
<path fill-rule="evenodd" clip-rule="evenodd" d="M28.0004 9.81918C23.594 7.34508 19.27 6.01528 15.6255 6.01563C12.758 6.0158 10.3095 6.83892 8.57404 8.5744C4.63274 12.5156 5.39809 20.1257 9.81919 28C7.13292 32.7846 5.79691 37.471 6.0463 41.2969C7.32228 40.093 9.03195 39.3451 10.9135 39.3147C11.0112 38.2704 11.2475 37.1172 11.6251 35.8896C11.9472 34.8427 12.3641 33.7688 12.8668 32.6813C14.2844 34.5895 15.9051 36.4732 17.7156 38.2838C19.5265 40.0947 21.4108 41.7147 23.3194 43.1324C21.4931 43.9727 19.7169 44.5661 18.1001 44.8789C18.232 45.4261 18.3039 45.9964 18.3039 46.5837C18.3039 47.767 18.0178 48.8842 17.5143 49.8727C20.7229 49.506 24.3328 48.2394 27.9999 46.1805L27.9998 40.4983C25.627 38.9232 23.3031 37.0151 21.1436 34.8559C18.9884 32.7007 17.0787 30.3672 15.5067 28C17.0788 25.6327 18.9885 23.2991 21.144 21.1439C23.303 18.9848 25.6272 17.0768 28.0003 15.5015L28.0004 9.81918ZM12.0021 12.0024C10.6271 13.3776 10.4861 16.4086 11.6251 20.1103C11.9472 21.1569 12.3643 22.2313 12.8668 23.3185C14.2844 21.4105 15.9052 19.5264 17.7158 17.7159C19.5267 15.9048 21.4112 14.2848 23.32 12.8669C20.5026 11.5706 17.8049 10.8636 15.6271 10.8636H15.6267H15.626C13.9771 10.8636 12.7578 11.247 12.0021 12.0024Z" fill="#D6E2EF"/>
<path d="M46.5842 13.4535C47.9229 13.4535 49.0082 12.3683 49.0082 11.0295C49.0082 9.69074 47.9229 8.60547 46.5842 8.60547C45.2454 8.60547 44.1602 9.69074 44.1602 11.0295C44.1602 12.3683 45.2454 13.4535 46.5842 13.4535Z" fill="#418CEF"/>
<path d="M27.9993 34.4634C31.5693 34.4634 34.4634 31.5693 34.4634 27.9993C34.4634 24.4292 31.5693 21.5352 27.9993 21.5352C24.4292 21.5352 21.5352 24.4292 21.5352 27.9993C21.5352 31.5693 24.4292 34.4634 27.9993 34.4634Z" fill="#418CEF"/>
<path d="M21.5352 27.9993C21.5352 31.5693 24.4292 34.4634 27.9993 34.4634V21.5352C24.4292 21.5352 21.5352 24.4292 21.5352 27.9993Z" fill="#3983E4"/>
<path d="M11.0295 49.0082C12.3683 49.0082 13.4535 47.9229 13.4535 46.5842C13.4535 45.2454 12.3683 44.1602 11.0295 44.1602C9.69074 44.1602 8.60547 45.2454 8.60547 46.5842C8.60547 47.9229 9.69074 49.0082 11.0295 49.0082Z" fill="#418CEF"/>
</svg>
