<svg width="56" height="56" viewBox="0 0 56 56" fill="none" xmlns="http://www.w3.org/2000/svg">
<g clip-path="url(#clip0)">
<path d="M56 15.3992H44.8V11.1992H35H30.8V33.4962L22.4646 29.3503C25.8279 26.7933 28 22.7502 28 18.1992C28 10.4672 21.732 4.19922 14 4.19922C6.26795 4.19922 0 10.4672 0 18.1992C0 22.7791 2.19931 26.8451 5.59913 29.3992C2.19931 31.9533 0 36.0193 0 40.5992V47.5992H4.2V51.7992H11.2V47.5992H16.8V51.7992H23.8V43.3992H4.2V39.1992H23.8V36.2687L30.8 39.7504V51.7992H35V30.7992H40.6V34.9992H56L53.2 25.1992L56 15.3992ZM5.96455 23.7992C4.85406 22.2105 4.2 20.2803 4.2 18.1992C4.2 16.1181 4.85406 14.1879 5.96455 12.5992H22.0352C23.1458 14.1879 23.7999 16.1181 23.7999 18.1992C23.7999 20.2803 23.1458 22.2105 22.0353 23.7992H5.96455ZM49.1615 26.3531L50.432 30.7992H44.8V19.5992H50.432L49.1617 24.0453L48.832 25.1992L49.1615 26.3531Z" fill="#CDD8E5"/>
<path d="M0 18.1992C0 10.4672 6.26795 4.19922 14 4.19922V12.632H6.17969C3.66406 14.9836 3.55469 21.382 6.17969 23.8429H14V39.1992H4.2V43.3992H14V47.5992H11.2V51.7992H4.2V47.5992H0V40.5992C0 36.0193 2.19931 31.9533 5.59912 29.3992C2.19931 26.8451 0 22.7791 0 18.1992Z" fill="#D6E2EF"/>
<path fill-rule="evenodd" clip-rule="evenodd" d="M30.7891 11.2109H44.7344V15.3672H56.1094L53.2656 25.2109L56.1094 35H40.6875V30.7891H35.1641H30.7891V11.2109ZM44.8438 19.5781V30.7344H50.4766L48.8359 25.2109L50.4766 19.5781H44.8438Z" fill="#418CEF"/>
</g>
<defs>
<clipPath id="clip0">
<rect width="56" height="56" fill="white"/>
</clipPath>
</defs>
</svg>
