<svg width="40" height="40" viewBox="0 0 40 40" fill="none" xmlns="http://www.w3.org/2000/svg">
<path d="M19.6865 40H16.5615C15.0107 40 13.749 38.7384 13.749 37.1875V17.8125C13.749 16.2616 15.0107 15 16.5615 15H19.6865C21.2374 15 22.499 16.2616 22.499 17.8125V37.1875C22.499 38.7384 21.2373 40 19.6865 40Z" fill="#418CEF"/>
<path d="M7.81153 40H4.68653C3.13567 40 1.87402 38.7384 1.87402 37.1875V24.0625C1.87402 22.5116 3.13567 21.25 4.68653 21.25H7.81153C9.36239 21.25 10.624 22.5116 10.624 24.0625V37.1875C10.624 38.7384 9.36231 40 7.81153 40Z" fill="#418CEF"/>
<path d="M31.5615 40H28.4365C26.8857 40 25.624 38.7384 25.624 37.1875V11.25H23.9068C23.104 11.25 22.3968 10.7969 22.0614 10.0675C21.7259 9.33813 21.8421 8.50641 22.3646 7.8968C22.3705 7.88984 22.3766 7.88289 22.3827 7.87609L29.0681 0.415781C29.3052 0.151172 29.6437 0 29.999 0C30.3543 0 30.6928 0.151172 30.93 0.415781L37.6154 7.87609C37.6215 7.88289 37.6276 7.88984 37.6335 7.8968C38.156 8.50633 38.2722 9.33813 37.9367 10.0675C37.6012 10.7969 36.894 11.25 36.0912 11.25H34.374V37.1875C34.374 38.7384 33.1123 40 31.5615 40Z" fill="#418CEF"/>
</svg>
