<svg width="56" height="56" viewBox="0 0 56 56" fill="none" xmlns="http://www.w3.org/2000/svg">
<path d="M28.0018 10.1816C25.8805 10.1816 23.8462 10.5531 21.9593 11.2333C23.3422 12.3382 24.3346 13.9114 24.6918 15.7117C25.748 15.427 26.8569 15.2726 28.0017 15.2726C35.0195 15.2726 40.729 20.9821 40.729 27.9999C40.729 35.0178 35.0196 40.7271 28.0018 40.7271C20.9839 40.7271 15.2745 35.0176 15.2745 27.9998C15.2745 26.8539 15.4292 25.7437 15.7147 24.6866C13.9147 24.3296 12.3399 23.3399 11.235 21.9579C10.5549 23.8448 10.1836 25.8788 10.1836 27.9998C10.1836 37.8405 18.1611 45.818 28.0018 45.818C37.8425 45.818 45.8199 37.8405 45.8199 27.9998C45.8199 18.1591 37.8425 10.1816 28.0018 10.1816Z" fill="#DFE8F4"/>
<path d="M17.2017 19.7472C18.6076 19.7472 19.7472 18.6076 19.7472 17.2017C19.7472 15.7959 18.6076 14.6562 17.2017 14.6562C15.7959 14.6562 14.6562 15.7959 14.6562 17.2017C14.6562 18.6076 15.7959 19.7472 17.2017 19.7472Z" fill="#418CEF"/>
<path d="M28 0C12.5608 0 0 12.5608 0 28C0 33.0065 1.32212 37.7099 3.63377 41.7809C3.91005 41.3646 4.23106 40.9695 4.59769 40.6028C5.49314 39.7075 6.57191 39.0623 7.74933 38.7014C6.05347 35.5053 5.09086 31.8631 5.09086 28C5.09086 15.368 15.3678 5.09086 28 5.09086C40.6322 5.09086 50.9091 15.368 50.9091 28C50.9091 40.632 40.632 50.9091 28 50.9091C24.1347 50.9091 20.4907 49.9454 17.2935 48.2479C16.9405 49.4029 16.3092 50.4903 15.3973 51.4023C15.0335 51.7661 14.6394 52.0882 14.2209 52.3672C18.2917 54.6782 22.9941 56 28 56C43.4392 56 56 43.4392 56 28C56 12.5608 43.4392 0 28 0Z" fill="#CCD7E4"/>
<path d="M11.7985 44.2026C11.3015 43.7056 10.6499 43.457 9.99847 43.457C9.34704 43.457 8.69549 43.7054 8.19871 44.2026C7.2046 45.1968 7.2046 46.8084 8.19871 47.8024C8.69571 48.2994 9.34725 48.548 9.99847 48.548C10.6497 48.548 11.3015 48.2994 11.7985 47.8024C12.7926 46.8083 12.7926 45.1966 11.7985 44.2026Z" fill="#418CEF"/>
<path d="M27.9996 35.636C32.2171 35.636 35.636 32.2171 35.636 27.9996C35.636 23.7822 32.2171 20.3633 27.9996 20.3633C23.7822 20.3633 20.3633 23.7822 20.3633 27.9996C20.3633 32.2171 23.7822 35.636 27.9996 35.636Z" fill="#418CEF"/>
<path d="M20.3633 27.9996C20.3633 32.2171 23.7822 35.636 27.9996 35.636V20.3633C23.7822 20.3633 20.3633 23.7822 20.3633 27.9996Z" fill="#3983E4"/>
</svg>
